<svg width="48" height="48" viewBox="0 0 48 48" fill="none" xmlns="http://www.w3.org/2000/svg">
<rect y="0.00177193" width="48" height="47.9965" rx="23.9982" fill="#D9D9D9" fill-opacity="0.51"/>
<path opacity="0.5" d="M30 20.0018C30 18.4105 29.3679 16.8843 28.2426 15.7591C27.1174 14.6339 25.5913 14.0018 24 14.0018C22.4087 14.0018 20.8826 14.6339 19.7574 15.7591C18.6321 16.8843 18 18.4105 18 20.0018C18 27.0018 15 29.0018 15 29.0018H33C33 29.0018 30 27.0018 30 20.0018Z" stroke="black" stroke-width="2" stroke-linecap="round" stroke-linejoin="round"/>
<path opacity="0.5" d="M25.73 33.0018C25.5542 33.3048 25.3019 33.5564 24.9982 33.7313C24.6946 33.9062 24.3504 33.9982 24 33.9982C23.6496 33.9982 23.3054 33.9062 23.0018 33.7313C22.6982 33.5564 22.4458 33.3048 22.27 33.0018" stroke="black" stroke-width="2" stroke-linecap="round" stroke-linejoin="round"/>
</svg>
