<svg width="36" height="36" viewBox="0 0 36 36" fill="none" xmlns="http://www.w3.org/2000/svg">
<path fill-rule="evenodd" clip-rule="evenodd" d="M17.6085 3C25.6635 3 32.2155 9.552 32.2155 17.607C32.2155 21.4073 30.7571 24.8734 28.3705 27.4747L33.0666 32.1611C33.5061 32.6006 33.5076 33.3116 33.0681 33.751C32.8491 33.973 32.5596 34.0826 32.2716 34.0826C31.9851 34.0826 31.6971 33.9731 31.4766 33.7541L26.7238 29.0145C24.2236 31.0168 21.0535 32.2155 17.6085 32.2155C9.5535 32.2155 3 25.662 3 17.607C3 9.552 9.5535 3 17.6085 3ZM17.6085 5.25C10.794 5.25 5.25 10.7925 5.25 17.607C5.25 24.4215 10.794 29.9655 17.6085 29.9655C24.4215 29.9655 29.9655 24.4215 29.9655 17.607C29.9655 10.7925 24.4215 5.25 17.6085 5.25Z" fill="#BEBEBE"/>
</svg>
